<?xml version="1.0" encoding="UTF-8" standalone="no"?>
<svg
   xmlns:dc="http://purl.org/dc/elements/1.1/"
   xmlns:cc="http://creativecommons.org/ns#"
   xmlns:rdf="http://www.w3.org/1999/02/22-rdf-syntax-ns#"
   xmlns:svg="http://www.w3.org/2000/svg"
   xmlns="http://www.w3.org/2000/svg"
   xmlns:sodipodi="http://sodipodi.sourceforge.net/DTD/sodipodi-0.dtd"
   xmlns:inkscape="http://www.inkscape.org/namespaces/inkscape"
   inkscape:version="1.0 (4035a4fb49, 2020-05-01)"
   sodipodi:docname="main roads logo 2.svg"
   id="svg8"
   version="1.1"
   viewBox="0 0 348.41324 106.2844"
   height="401.70486"
   width="1316.8375">
  <defs
     id="defs2">
    <style
       id="style26">
      .cls-1{fill:#fff;fill-rule:evenodd}
    </style>
  </defs>
  <sodipodi:namedview
     inkscape:pagecheckerboard="true"
     units="px"
     inkscape:window-maximized="0"
     inkscape:window-y="2"
     inkscape:window-x="2242"
     inkscape:window-height="908"
     inkscape:window-width="1477"
     fit-margin-bottom="40"
     fit-margin-right="35"
     fit-margin-left="30"
     fit-margin-top="45"
     inkscape:snap-global="false"
     showgrid="false"
     inkscape:document-rotation="0"
     inkscape:current-layer="layer1"
     inkscape:document-units="mm"
     inkscape:cy="275.11179"
     inkscape:cx="668.51258"
     inkscape:zoom="0.71"
     inkscape:pageshadow="2"
     inkscape:pageopacity="0.0"
     borderopacity="1.0"
     bordercolor="#666666"
     pagecolor="#ffffff"
     id="base" />
  <metadata
     id="metadata5">
    <rdf:RDF>
      <cc:Work
         rdf:about="">
        <dc:format>image/svg+xml</dc:format>
        <dc:type
           rdf:resource="http://purl.org/dc/dcmitype/StillImage" />
        <dc:title></dc:title>
      </cc:Work>
    </rdf:RDF>
  </metadata>
  <g
     transform="translate(119.31861,3.0340123)"
     id="layer1"
     inkscape:groupmode="layer"
     inkscape:label="Layer 1">
    <rect
       y="-13.143124"
       x="-177.0425"
       height="129.11523"
       width="463.20715"
       id="rect963"
       style="opacity:1;fill:#ffffff;fill-opacity:1;stroke:none;stroke-width:0.357;stroke-miterlimit:4;stroke-dasharray:none" />
    <g
       style="fill:#5b5b5b;fill-opacity:1"
       transform="matrix(1.4902157,0,0,1.4902157,-111.38111,8.8722377)"
       id="g42">
      <path
         style="fill:#5b5b5b;fill-opacity:1"
         class="cls-1"
         d="m 22,23.08 -0.12,0.12 c -1.88,0.62 -3.78,1.21 -5.5,1.8 -3.8,1.18 -6.74,2.16 -7.25,2.39 h 10.42 c 0.75,-1.37 1.57,-2.78 2.44,-4.23 z M 26.92,18 c -0.51,0.83 -0.94,1.65 -1.41,2.47 L 33,18.53 c 0,0 -2.95,-0.23 -6,-0.55 z M 11.8,47.81 c 0.39,-3.53 1.87,-8.35 4.58,-14.19 0.55,-1.18 1.18,-2.43 1.8,-3.68 H 16.4 C 7.53,29.7 0.2,29.51 0.2,29.51 H 0 a 26.91,26.91 0 0 0 11.84,22.09 14.79,14.79 0 0 1 0,-3.79 z M 51,31.47 c -12.26,2 -24.25,1.84 -32.6,16.69 a 36,36 0 0 1 -2,3.13 8.89,8.89 0 0 1 -1.8,2 c 0.59,0.31 1.21,0.59 1.8,0.87 a 27,27 0 0 0 10.35,2.07 26.74,26.74 0 0 0 26.7,-25.79 5.52,5.52 0 0 1 -2.47,1 z"
         id="path30" />
      <path
         style="fill:#5b5b5b;fill-opacity:1"
         class="cls-1"
         d="m 28.53,33.66 a 52,52 0 0 1 13.4,-3.41 c -3.41,0 -8.23,-0.08 -13.4,-0.16 L 21.87,30 H 20.93 A 93.83,93.83 0 0 0 16.61,43.6 C 18,39.22 23,35.93 28.53,33.66 Z M 15.56,23.08 c 2.59,-0.67 5.17,-1.38 7.56,-2 0.67,-1.06 1.33,-2.15 2.08,-3.29 -1.37,-0.16 -2.63,-0.32 -3.57,-0.51 -2,-0.35 2.55,-2.86 6.86,-6.35 A 28.87,28.87 0 0 0 33.13,6.41 C 33.75,5.63 34.36,4.84 35,4 A 27.28,27.28 0 0 0 28.54,2.74 h -1.8 A 26.7,26.7 0 0 0 0.08,27.27 2.06,2.06 0 0 1 0.59,27 c 1,-0.28 7.84,-2.08 15,-3.92 z M 27.51,17 c 0.31,0 0.67,0 1,0.07 2,0.16 4.07,0.36 5.45,0.47 2.19,0.24 3.56,0.83 1,1.65 -1.45,0.43 -3.77,1.18 -6.47,2 -1.29,0.39 -2.67,0.82 -4,1.25 0,-0.12 -1.57,3.1 -2.4,4.9 h 6.43 c 7.37,0 14.89,-0.08 22.56,-0.08 A 4.5,4.5 0 0 1 53.4,27.77 26.81,26.81 0 0 0 35.5,4.19 c -2.62,4 -4.94,7.61 -7,11 -0.35,0.59 -0.71,1.18 -1,1.77 z M 60,31.11 h 3 v 0.24 c -0.55,0 -0.94,0.07 -0.94,0.39 a 0.36,0.36 0 0 0 0.08,0.19 l 2.11,5.93 1.57,-4.36 -0.39,-1.14 a 1.91,1.91 0 0 0 -0.47,-0.78 1.42,1.42 0 0 0 -0.82,-0.23 v -0.24 h 3.52 v 0.24 c -0.47,0 -1.05,0.07 -1.05,0.62 0,0.16 0.31,1 0.35,1.18 l 1.6,4.62 0.79,-2.66 A 15.13,15.13 0 0 0 70.2,32 c 0,-0.55 -0.55,-0.55 -1,-0.62 v -0.24 h 2.24 v 0.24 c -0.75,0.15 -1,1.21 -1.14,1.8 l -2.08,6.7 H 68 l -2,-6 -2,6 h -0.2 l -2.78,-7.33 c -0.16,-0.39 -0.19,-0.74 -0.43,-0.94 a 0.87,0.87 0 0 0 -0.51,-0.23 v -0.24 z m 13.65,8.58 v -0.27 c 0.62,0 1,-0.08 1,-0.71 v -6.66 c 0,-0.63 -0.43,-0.7 -1,-0.7 V 31.11 H 80 l 0.59,2 H 80.31 C 80.15,32.83 79.96,32.6 79.8,32.36 a 2.4,2.4 0 0 0 -2,-1 h -1.92 v 3.84 h 0.67 c 1.29,0 1.77,-0.16 2.07,-1.57 h 0.17 v 3.56 h -0.17 c -0.15,-1.37 -0.7,-1.68 -1.91,-1.68 h -0.83 v 3.29 c 0,0.59 0.4,0.63 0.86,0.63 h 1.42 a 1.63,1.63 0 0 0 1.4,-0.63 7.66,7.66 0 0 0 1.14,-1.41 h 0.2 l -0.51,2.27 z m 9.99,-2.62 h 0.27 c 0.16,1.29 0.83,2.51 2.35,2.51 a 1.76,1.76 0 0 0 2,-1.81 c 0,-1.25 -1.13,-1.37 -2.07,-1.76 -1.41,-0.47 -2.28,-0.9 -2.28,-2.51 a 2.5,2.5 0 0 1 2.67,-2.5 3.14,3.14 0 0 1 2,0.71 l 0.35,-0.32 h 0.2 v 2.55 h -0.24 a 5.08,5.08 0 0 0 -0.78,-2 1.74,1.74 0 0 0 -1.37,-0.66 1.71,1.71 0 0 0 -1.81,1.88 c 0,1.1 0.79,1.33 1.68,1.61 1.38,0.43 2.75,1 2.75,2.62 0,1.62 -1.36,2.46 -2.93,2.46 a 4,4 0 0 1 -2.16,-0.63 l -0.47,0.47 h -0.16 z m 11.79,-5.72 h -2 c -0.43,0 -0.59,0.19 -0.86,0.55 -0.27,0.36 -0.63,0.93 -1,1.41 l -0.16,-0.09 0.51,-2.3 a 5.37,5.37 0 0 0 1.1,0.19 h 6.19 a 5.62,5.62 0 0 0 1.06,-0.19 l 0.46,2.3 -0.19,0.09 a 15.4,15.4 0 0 0 -0.9,-1.41 c -0.27,-0.36 -0.43,-0.55 -0.86,-0.55 h -2 v 7.36 c 0,0.55 0.24,0.67 1.14,0.71 v 0.27 H 94.3 v -0.27 c 0.86,0 1.13,-0.16 1.13,-0.71 z m 7.45,8.34 v -0.27 c 0.59,0 1,-0.08 1,-0.71 v -6.66 c 0,-0.63 -0.43,-0.7 -1,-0.7 v -0.24 h 6.35 l 0.59,2 h -0.24 c -0.19,-0.28 -0.35,-0.51 -0.54,-0.75 a 2.37,2.37 0 0 0 -2,-1 h -1.87 v 3.84 h 0.66 c 1.25,0 1.77,-0.16 2,-1.57 h 0.23 v 3.56 h -0.23 c -0.12,-1.37 -0.67,-1.68 -1.88,-1.68 h -0.82 v 3.29 c 0,0.59 0.39,0.63 0.86,0.63 h 1.37 a 1.72,1.72 0 0 0 1.45,-0.63 8.09,8.09 0 0 0 1.14,-1.41 h 0.19 l -0.47,2.27 z m 13.95,-8.3 a 2.92,2.92 0 0 0 -0.63,-0.08 c -0.62,0 -0.94,0.12 -0.94,0.74 v 3.49 h 1.14 c 0.16,0 0.28,0 0.43,-0.08 v 0.94 l -0.08,-0.08 a 2,2 0 0 0 -1.49,-0.47 v 2.91 c 0,0.62 0.32,0.7 1.06,0.7 v 0.27 h -3.21 v -0.27 c 0.71,0 0.94,-0.08 0.9,-0.7 v -6.71 c 0,-0.62 -0.27,-0.7 -0.86,-0.7 v -0.24 c 1.13,0 2.23,-0.07 3.37,-0.07 a 1.09,1.09 0 0 1 0.31,0 v 0.32 z m 1.53,2 a 1.88,1.88 0 0 0 -1.53,-2 v -0.32 c 1.41,0 2.9,0.67 2.9,2.31 0,1.3 -0.82,1.88 -2,2.28 a 13.27,13.27 0 0 1 2.12,3.06 1.18,1.18 0 0 0 1.18,0.7 v 0.27 h -2 a 23.38,23.38 0 0 0 -2.2,-3.33 v -0.94 a 1.9,1.9 0 0 0 1.53,-2 z m 5.88,-0.95 v 6.27 c 0,0.43 0.31,0.67 1.17,0.71 v 0.27 h -2.58 v -0.27 c 0.58,-0.08 1.06,-0.08 1.09,-0.71 v -6.62 c -0.35,-0.35 -0.62,-0.7 -1.09,-0.74 v -0.24 h 1.88 l 6.15,6.74 v -5.68 c 0,-0.66 -0.35,-0.75 -1.14,-0.82 v -0.24 h 2.59 v 0.24 c -0.86,0.16 -1.14,0.39 -1.14,0.78 v 7.64 H 131 l -6.74,-7.33 z m 16.5,3.65 h 1.33 v 0.31 h -1.49 c -0.12,0.47 -0.82,2.16 -0.82,2.47 0,0.51 0.66,0.51 1,0.55 v 0.27 h -2.26 v -0.27 a 1,1 0 0 0 0.79,-0.63 l 2.54,-6.58 -0.23,-0.39 a 1.5,1.5 0 0 0 0.47,-0.32 v 1.18 -0.12 l -1.29,3.53 z m 1.33,0 h 1.33 l -1.33,-3.41 V 31.5 c 0.19,-0.19 0.35,-0.43 0.54,-0.62 l 2.91,7.4 c 0.27,0.71 0.38,1 1.09,1.14 v 0.27 h -3.25 v -0.27 c 0.35,0 1.06,0 1.06,-0.51 0,-0.35 -0.71,-2 -0.86,-2.51 h -1.49 z m 6.5,-4.98 h 3.26 v 0.24 c -1,0 -1.11,0.31 -1.11,1 v 5 a 2.11,2.11 0 0 0 2.4,2.28 c 2,0 2.51,-1.3 2.51,-2.75 v -4.5 c 0,-0.86 -0.44,-0.91 -1.26,-1 V 31.14 H 157 v 0.24 c -0.67,0 -1.06,0.27 -1.06,1 v 4.5 c 0,1.73 -0.67,3 -3.25,3 -2.58,0 -3.26,-1.37 -3.26,-2.9 v -4.65 c 0,-0.83 -0.08,-0.91 -0.9,-1 v -0.24 z m 10.82,5.96 h 0.27 c 0.16,1.29 0.79,2.51 2.35,2.51 a 1.78,1.78 0 0 0 2,-1.81 c 0,-1.25 -1.13,-1.37 -2.07,-1.76 -1.46,-0.47 -2.28,-0.9 -2.28,-2.51 a 2.5,2.5 0 0 1 2.67,-2.5 3.15,3.15 0 0 1 2,0.71 l 0.36,-0.32 h 0.15 v 2.55 h -0.19 a 6.2,6.2 0 0 0 -0.79,-2 1.77,1.77 0 0 0 -1.36,-0.66 1.74,1.74 0 0 0 -1.85,1.88 c 0,1.1 0.82,1.33 1.69,1.61 1.37,0.43 2.78,1 2.78,2.62 0,1.62 -1.37,2.47 -3,2.47 A 4,4 0 0 1 160,39.23 l -0.47,0.47 h -0.15 v -2.63 z m 11.79,-5.72 h -2 c -0.48,0 -0.59,0.19 -0.91,0.55 -0.32,0.36 -0.58,0.93 -1,1.41 l -0.15,-0.09 0.55,-2.3 a 5.39,5.39 0 0 0 1.09,0.19 h 6.16 a 5.39,5.39 0 0 0 1.09,-0.19 l 0.43,2.3 -0.15,0.09 a 11.15,11.15 0 0 0 -0.94,-1.41 c -0.28,-0.36 -0.4,-0.55 -0.86,-0.55 h -2 v 7.36 c 0,0.55 0.23,0.67 1.13,0.71 v 0.27 h -3.52 v -0.27 c 0.86,0 1.13,-0.16 1.13,-0.71 v -7.36 z m 11.17,0.04 a 3,3 0 0 0 -0.59,-0.08 c -0.63,0 -0.94,0.12 -0.94,0.74 v 3.49 h 1.1 c 0.16,0 0.27,0 0.43,-0.08 v 0.94 l -0.08,-0.08 a 1.92,1.92 0 0 0 -1.45,-0.47 v 2.91 c 0,0.62 0.28,0.7 1,0.7 v 0.27 h -3.21 v -0.27 c 0.7,0 1,-0.08 0.94,-0.7 v -6.71 c 0,-0.62 -0.32,-0.7 -0.9,-0.7 v -0.24 c 1.13,0 2.27,-0.07 3.41,-0.07 a 1,1 0 0 1 0.27,0 v 0.32 z m 1.53,2 a 1.88,1.88 0 0 0 -1.53,-2 v -0.32 c 1.41,0 2.9,0.67 2.9,2.31 0,1.3 -0.82,1.88 -2,2.28 a 13.59,13.59 0 0 1 2.12,3.06 1.23,1.23 0 0 0 1.21,0.7 v 0.27 h -2.07 a 25.23,25.23 0 0 0 -2.2,-3.33 v -0.94 a 1.9,1.9 0 0 0 1.53,-2 z m 6.51,2.7 h 1.32 v 0.31 h -1.49 c -0.11,0.47 -0.81,2.16 -0.81,2.47 0,0.51 0.62,0.51 1,0.55 v 0.27 h -2.24 v -0.27 a 1,1 0 0 0 0.79,-0.63 l 2.54,-6.58 -0.24,-0.39 a 1.69,1.69 0 0 0 0.47,-0.36 v 1.3 l -0.07,-0.2 -1.25,3.53 z m 1.32,0 h 1.34 l -1.34,-3.33 v -1.3 a 3.35,3.35 0 0 0 0.55,-0.58 l 2.9,7.4 c 0.28,0.71 0.43,1 1.1,1.14 v 0.27 H 193 v -0.27 c 0.35,0 1.06,0 1.06,-0.51 0,-0.35 -0.71,-2 -0.86,-2.51 h -1.5 v -0.31 z m 6.43,3.6 v -0.27 c 0.71,0 1,-0.08 1,-0.71 v -6.66 c 0,-0.63 -0.43,-0.7 -0.94,-0.7 v -0.24 h 3.41 v 0.24 c -0.86,0 -1.18,0.23 -1.18,0.86 v 6.23 c 0,0.94 0.32,1 1.49,1 a 6.42,6.42 0 0 0 1.53,-0.12 2.05,2.05 0 0 0 1.42,-1 c 0.31,-0.47 0.58,-0.94 0.89,-1.41 H 206 l -0.7,2.78 z m 10.23,0 v -0.27 c 0.66,0 1.14,-0.08 1.14,-0.71 v -6.66 c 0,-0.63 -0.48,-0.7 -1.14,-0.7 v -0.24 h 3.57 v 0.24 c -0.75,0 -1.18,0.07 -1.18,0.7 v 6.66 c 0,0.63 0.43,0.71 1.18,0.71 v 0.27 z m 7.79,-3.6 h 1.34 V 36.4 H 216 c -0.12,0.47 -0.86,2.16 -0.86,2.47 0,0.51 0.7,0.51 1,0.55 v 0.27 h -2.23 v -0.27 a 0.94,0.94 0 0 0 0.79,-0.63 l 2.54,-6.58 -0.23,-0.39 a 3.93,3.93 0 0 0 0.47,-0.32 v 1.18 -0.12 l -1.3,3.53 z m 1.34,0 h 1.34 L 217.5,32.68 V 31.5 c 0.19,-0.19 0.35,-0.43 0.55,-0.62 l 2.9,7.4 c 0.27,0.71 0.43,1 1.1,1.14 v 0.27 h -3.25 v -0.27 c 0.38,0 1,0 1,-0.51 0,-0.35 -0.71,-2 -0.86,-2.51 H 217.5 Z M 60.17,27.11 v -0.74 c 1.64,-0.08 2.11,-0.08 2.11,-2.08 V 14.5 c 0,-1.3 -0.74,-1.73 -1.87,-2.2 V 12 a 30.36,30.36 0 0 0 4.82,-1.81 v 3.1 c 1.68,-1.85 3,-3.1 5.63,-3.1 a 5.24,5.24 0 0 1 4.82,3.38 c 1.54,-1.77 3.18,-3.38 5.61,-3.38 3.45,0 5.57,3.42 5.57,6.16 v 8 c -0.08,2 0.11,2 2.26,2.08 v 0.74 h -7.44 v -0.74 c 1.92,-0.08 2.15,-0.08 2.15,-2.08 v -8.17 c 0,-2.58 -1.24,-4.31 -3.91,-4.31 -1.73,0 -3.84,1.57 -3.84,3.37 v 9 c 0,2 0.75,2 2.11,2.08 v 0.74 h -7.28 v -0.74 c 2,-0.08 2.15,-0.15 2.15,-2.15 V 16 c 0,-2.47 -0.86,-4.08 -3.6,-4.08 a 4.19,4.19 0 0 0 -4.16,3 v 9.44 c 0,2 0.74,2 2,2.08 v 0.74 z m 37.54,-17 v 0.82 c -1.25,0.23 -2.67,0.94 -2.67,1.77 v 0.86 c 0,1.44 -0.31,2.46 -2,2.46 A 1.24,1.24 0 0 1 92,14.73 a 3.28,3.28 0 0 1 1.37,-2.35 12.76,12.76 0 0 1 4.35,-2.27 z m 0,9 c -1.61,0.75 -3.1,1.76 -3.1,3.13 a 2.76,2.76 0 0 0 2.75,2.87 h 0.35 V 26.6 A 5.17,5.17 0 0 1 95.43,27.11 3.38,3.38 0 0 1 92,23.86 c 0,-3 2.89,-4.5 5.68,-5.64 v 0.9 z m 3.05,-1.25 c -0.7,0.31 -1.92,0.74 -3.05,1.25 v -0.9 c 1.09,-0.43 2.19,-0.82 3.05,-1.22 v -4.14 c 0,-1.52 -0.94,-2 -2.35,-2 a 4.11,4.11 0 0 0 -0.7,0 v -0.82 a 8.2,8.2 0 0 1 2.39,-0.36 c 2.31,0 3.57,1.41 3.57,3.73 v 10.3 c 0,0.63 0,1.8 0.86,1.8 0.62,0 1,-0.81 1.09,-1.28 h 0.63 c -0.2,1.84 -1,2.89 -2.82,2.89 a 2.76,2.76 0 0 1 -2.63,-2.62 18.5,18.5 0 0 1 -3.09,2.11 v -1.48 a 5.37,5.37 0 0 0 3.05,-1.49 v -5.76 z m 18.82,9.25 v -0.74 c 1.72,-0.08 2.19,-0.08 2.19,-2.08 v -9.48 a 2.12,2.12 0 0 0 -1.85,-2.43 V 12 c 1.69,-0.51 3.22,-1.22 4.83,-1.81 v 2.91 c 1.61,-1.61 2.78,-2.91 5.21,-2.91 2.78,0 5.6,2.16 5.6,5.06 v 9 c 0,2 1,2 2.31,2.08 v 0.74 h -7.56 v -0.74 c 1.73,-0.08 2.2,-0.08 2.2,-2.08 v -8.38 c 0,-2.39 -1.34,-4 -3.8,-4 -1.65,0 -4,1.61 -4,3.37 v 9 c 0,2 0.51,2 2.15,2.08 v 0.74 z m 21.04,0 v -0.74 c 1.64,-0.08 2.15,-0.08 2.15,-2.08 v -9.67 c 0,-1.49 -0.43,-1.58 -1.76,-2.24 V 12 c 1.6,-0.55 3.13,-1.37 4.7,-2 v 2.74 c 0.94,-1.1 2.16,-2.9 3.84,-2.9 a 1.78,1.78 0 0 1 2,1.77 1.45,1.45 0 0 1 -1.45,1.45 c -0.62,0 -1.25,-0.67 -2.23,-0.67 -0.67,0 -2.08,1.1 -2.08,1.68 v 10.22 c 0,2 0.51,2 2.43,2.08 v 0.74 z M 161.46,10.5 c -3.52,0 -4.82,4 -4.82,7.91 0,3.91 1.3,8 4.82,8 v 0.74 c -4.86,0 -8.07,-3.87 -8.07,-8.7 0,-4.83 3.21,-8.65 8.07,-8.65 v 0.74 z m 0,15.87 c 3.53,0 4.86,-4 4.86,-8 0,-4 -1.32,-7.87 -4.82,-7.87 V 9.76 c 4.86,0 8.11,3.83 8.11,8.65 0,4.82 -3.25,8.7 -8.11,8.7 v -0.74 z m 16.85,-16.26 v 0.82 c -1.25,0.23 -2.62,0.94 -2.62,1.77 v 0.86 c 0,1.44 -0.27,2.46 -2,2.46 a 1.27,1.27 0 0 1 -1.14,-1.29 3.34,3.34 0 0 1 1.45,-2.35 12.3,12.3 0 0 1 4.31,-2.27 z m 0,9 c -1.57,0.78 -3.05,1.76 -3.05,3.13 a 2.76,2.76 0 0 0 2.74,2.88 h 0.31 v 1.48 a 5,5 0 0 1 -2.27,0.51 3.38,3.38 0 0 1 -3.41,-3.25 c 0,-3 2.9,-4.54 5.68,-5.64 v 0.9 z m 3.06,-1.25 c -0.7,0.31 -1.92,0.74 -3.06,1.25 v -0.9 c 1.1,-0.43 2.2,-0.82 3.06,-1.22 v -4.14 c 0,-1.52 -0.94,-2 -2.35,-2 a 4.47,4.47 0 0 0 -0.71,0 v -0.82 a 8.74,8.74 0 0 1 2.4,-0.36 c 2.35,0 3.6,1.41 3.6,3.73 v 10.3 c 0,0.63 0,1.8 0.86,1.8 0.63,0 1,-0.81 1.1,-1.28 h 0.59 c -0.2,1.84 -0.94,2.89 -2.79,2.89 a 2.75,2.75 0 0 1 -2.62,-2.62 17.27,17.27 0 0 1 -3.14,2.11 v -1.48 a 5.28,5.28 0 0 0 3.06,-1.49 v -5.76 z m 16.42,-7.36 c -3.77,0.2 -4.82,4.23 -4.82,7.36 0,5.65 3,7.29 4.82,7.61 v 1.61 a 3.14,3.14 0 0 1 -0.55,0 c -4.7,0 -7.37,-4.07 -7.37,-8.5 0,-4.94 2.91,-8.66 7.92,-8.85 v 0.74 z m 4.82,5.5 c 0,-4.82 -3.37,-5.45 -4.54,-5.45 h -0.28 V 9.76 h 0.39 a 10.44,10.44 0 0 1 4.43,1.17 v -6 c 0,-0.87 0,-1.77 -0.94,-2.2 A 3,3 0 0 0 200.22,2.46 V 2.07 c 1.84,-0.62 3.56,-1.48 5.41,-2.07 v 24.76 l 2,0.63 v 0.27 l -5,1.45 v -2.62 h -0.08 a 6.26,6.26 0 0 1 -4.74,2.59 v -1.61 a 5.3,5.3 0 0 0 0.7,0.07 5.72,5.72 0 0 0 4.12,-2 V 16 Z m 8.54,5.35 h 0.47 c 0.71,2.28 1.45,5 4.35,5 2.23,0 3.33,-1.25 3.33,-3.45 0,-2.2 -2.35,-3 -4.07,-4 -2.16,-1.21 -4,-2.15 -4,-4.82 0,-2.85 2.66,-4.31 5.21,-4.31 a 15.37,15.37 0 0 1 5,1.18 V 15 h -0.59 c -0.43,-2.31 -2,-4.51 -4.54,-4.51 a 2.53,2.53 0 0 0 -2.62,2.71 c 0,3.28 8.57,3.17 8.57,8.73 0,3.49 -3,5.17 -6.15,5.17 a 9.91,9.91 0 0 1 -4.9,-1.21 V 21.35 Z M 109,27.11 v -0.74 c 1.73,-0.08 2.2,-0.08 2.2,-2.08 v -9.16 c 0,-0.83 0,-1.89 -0.67,-2.36 a 3.53,3.53 0 0 0 -1.37,-0.39 V 12 c 1.64,-0.71 3.37,-1.41 5.06,-2 v 14.3 c 0,2 0.5,2 2.11,2.08 v 0.74 z m 1.29,-20.84 a 2.07,2.07 0 0 0 2,2 2,2 0 0 0 2,-2 2,2 0 0 0 -2,-2 2,2 0 0 0 -2,2 z"
         id="path32" />
    </g>
  </g>
</svg>
