<svg width="210" height="114" viewBox="0 0 210 114" fill="none" xmlns="http://www.w3.org/2000/svg">
<g clip-path="url(#clip0_36370_18679)">
<path fill-rule="evenodd" clip-rule="evenodd" d="M147.856 85.5407H61.165L62.1845 86.5586V0L61.165 1.01786H147.856L146.837 0V86.5586L147.856 85.5407V85.5407Z" fill="white"/>
<path d="M147.856 0H61.165V86.5586H147.856V0Z" fill="#006BB6"/>
<path d="M103.451 4.33608C103.451 3.6643 104.001 3.13501 104.674 3.13501C105.347 3.13501 105.877 3.68465 105.877 4.33608C105.877 4.98751 105.326 5.55751 104.674 5.55751C104.021 5.55751 103.451 5.00787 103.451 4.33608Z" fill="#FFD520"/>
<path fill-rule="evenodd" clip-rule="evenodd" d="M103.532 58.0585C103.532 57.4478 104.021 56.9389 104.653 56.9389C105.285 56.9389 105.754 57.4275 105.754 58.0585V68.2982C105.754 68.9089 105.245 69.4178 104.653 69.4178C104.062 69.4178 103.532 68.9089 103.532 68.2982V58.0585V58.0585Z" fill="#FFD520"/>
<path fill-rule="evenodd" clip-rule="evenodd" d="M106.611 58.0585C106.611 57.4478 107.12 56.9389 107.732 56.9389C108.344 56.9389 108.833 57.4275 108.833 58.0585V68.2982C108.833 68.9089 108.323 69.4178 107.732 69.4178C107.141 69.4178 106.611 68.9089 106.611 68.2982V58.0585V58.0585Z" fill="#FFD520"/>
<path fill-rule="evenodd" clip-rule="evenodd" d="M109.71 58.0585C109.71 57.4478 110.199 56.9389 110.831 56.9389C111.463 56.9389 111.952 57.4275 111.952 58.0585V68.2982C111.952 68.9089 111.443 69.4178 110.831 69.4178C110.219 69.4178 109.71 68.9089 109.71 68.2982V58.0585V58.0585Z" fill="#FFD520"/>
<path fill-rule="evenodd" clip-rule="evenodd" d="M102.696 58.0585C102.696 57.4478 102.186 56.9389 101.575 56.9389C100.963 56.9389 100.474 57.4275 100.474 58.0585V68.2982C100.474 68.9089 100.963 69.4178 101.575 69.4178C102.186 69.4178 102.696 68.9089 102.696 68.2982V58.0585V58.0585Z" fill="#FFD520"/>
<path fill-rule="evenodd" clip-rule="evenodd" d="M99.6175 58.0585C99.6175 57.4478 99.1078 56.9389 98.5165 56.9389C97.9252 56.9389 97.3951 57.4275 97.3951 58.0585V68.2982C97.3951 68.9089 97.9048 69.4178 98.5165 69.4178C99.1281 69.4178 99.6175 68.9089 99.6175 68.2982V58.0585V58.0585Z" fill="#FFD520"/>
<path fill-rule="evenodd" clip-rule="evenodd" d="M95.3361 63.27C95.3361 62.6593 94.8468 62.1504 94.2147 62.1504C93.5827 62.1504 93.1138 62.6593 93.1138 63.27V68.2982C93.1138 68.909 93.6031 69.4179 94.2147 69.4179C94.8264 69.4179 95.3361 68.909 95.3361 68.2982V63.27Z" fill="#FFD520"/>
<path fill-rule="evenodd" clip-rule="evenodd" d="M92.2575 63.27C92.2575 62.6593 91.7682 62.1504 91.1565 62.1504C90.5449 62.1504 90.0555 62.6593 90.0555 63.27V68.2982C90.0555 68.909 90.5449 69.4179 91.1565 69.4179C91.7682 69.4179 92.2575 68.909 92.2575 68.2982V63.27Z" fill="#FFD520"/>
<path fill-rule="evenodd" clip-rule="evenodd" d="M89.1786 63.27C89.1786 62.6593 88.6893 62.1504 88.0777 62.1504C87.466 62.1504 86.9767 62.6593 86.9767 63.27V68.2982C86.9767 68.909 87.466 69.4179 88.0777 69.4179C88.6893 69.4179 89.1786 68.909 89.1786 68.2982V63.27Z" fill="#FFD520"/>
<path fill-rule="evenodd" clip-rule="evenodd" d="M86.1 63.27C86.1 62.6593 85.5903 62.1504 84.9787 62.1504C84.367 62.1504 83.8777 62.6593 83.8777 63.27V68.2982C83.8777 68.909 84.367 69.4179 84.9787 69.4179C85.5903 69.4179 86.1 68.909 86.1 68.2982V63.27Z" fill="#FFD520"/>
<path fill-rule="evenodd" clip-rule="evenodd" d="M83.0213 63.27C83.0213 62.6593 82.532 62.1504 81.9204 62.1504C81.3087 62.1504 80.8194 62.6593 80.8194 63.27V68.2982C80.8194 68.909 81.3087 69.4179 81.9204 69.4179C82.532 69.4179 83.0213 68.909 83.0213 68.2982V63.27Z" fill="#FFD520"/>
<path fill-rule="evenodd" clip-rule="evenodd" d="M113.971 63.27C113.971 62.6593 114.481 62.1504 115.072 62.1504C115.663 62.1504 116.193 62.6593 116.193 63.27V68.2982C116.193 68.909 115.683 69.4179 115.072 69.4179C114.46 69.4179 113.971 68.909 113.971 68.2982V63.27Z" fill="#FFD520"/>
<path fill-rule="evenodd" clip-rule="evenodd" d="M117.049 63.27C117.049 62.6593 117.539 62.1504 118.171 62.1504C118.803 62.1504 119.292 62.6593 119.292 63.27V68.2982C119.292 68.909 118.783 69.4179 118.171 69.4179C117.559 69.4179 117.049 68.909 117.049 68.2982V63.27Z" fill="#FFD520"/>
<path fill-rule="evenodd" clip-rule="evenodd" d="M120.128 63.27C120.128 62.6593 120.638 62.1504 121.249 62.1504C121.861 62.1504 122.35 62.6593 122.35 63.27V68.2982C122.35 68.909 121.861 69.4179 121.249 69.4179C120.638 69.4179 120.128 68.909 120.128 68.2982V63.27Z" fill="#FFD520"/>
<path fill-rule="evenodd" clip-rule="evenodd" d="M123.207 63.27C123.207 62.6593 123.716 62.1504 124.328 62.1504C124.94 62.1504 125.429 62.6593 125.429 63.27V68.2982C125.429 68.909 124.919 69.4179 124.328 69.4179C123.737 69.4179 123.207 68.909 123.207 68.2982V63.27Z" fill="#FFD520"/>
<path fill-rule="evenodd" clip-rule="evenodd" d="M100.698 20.1332C100.698 19.5225 101.187 19.0339 101.799 19.0339C102.411 19.0339 102.92 19.5225 102.92 20.1332V25.1818C102.92 25.7925 102.431 26.3014 101.799 26.3014C101.167 26.3014 100.698 25.7925 100.698 25.1818V20.1332Z" fill="#FFD520"/>
<path fill-rule="evenodd" clip-rule="evenodd" d="M106.366 20.1332C106.366 19.5225 106.855 19.0339 107.467 19.0339C108.079 19.0339 108.588 19.5225 108.588 20.1332V25.1818C108.588 25.7925 108.079 26.3014 107.467 26.3014C106.855 26.3014 106.366 25.7925 106.366 25.1818V20.1332Z" fill="#FFD520"/>
<path fill-rule="evenodd" clip-rule="evenodd" d="M103.532 20.1332C103.532 19.5225 104.021 19.0339 104.633 19.0339C105.245 19.0339 105.754 19.5225 105.754 20.1332V25.1818C105.754 25.7925 105.265 26.3014 104.633 26.3014C104.001 26.3014 103.532 25.7925 103.532 25.1818V20.1332Z" fill="#FFD520"/>
<path fill-rule="evenodd" clip-rule="evenodd" d="M100.698 14.5757H108.609L104.653 6.55499L100.698 14.5757Z" fill="#FFD520"/>
<path fill-rule="evenodd" clip-rule="evenodd" d="M104.633 51.5443L95.295 56.9389C94.7649 57.2443 94.0921 57.0611 93.7863 56.5318C93.4805 56.0025 93.664 55.3104 94.1941 55.005L104.674 48.9589L115.153 55.005C115.683 55.3104 115.867 55.9821 115.561 56.5318C115.255 57.0611 114.562 57.2443 114.052 56.9389L104.674 51.5443H104.633Z" fill="#FFD520"/>
<path fill-rule="evenodd" clip-rule="evenodd" d="M104.184 34.8921C104.184 34.8921 104.123 35.2382 104.47 35.4418L105.917 36.2561C106.121 36.3782 106.386 36.2968 106.509 36.0932C106.631 35.8896 106.55 35.625 106.346 35.5232L105.041 34.7903V32.9989C105.041 32.775 104.857 32.5714 104.613 32.5714C104.368 32.5714 104.184 32.7546 104.184 32.9989V34.8921Z" fill="#FFD520"/>
<path fill-rule="evenodd" clip-rule="evenodd" d="M75.9466 63.1479C75.9466 62.5982 75.4369 62.13 74.8252 62.13C74.2136 62.13 73.7039 62.5779 73.7039 63.1479V72.4714C73.7039 73.0414 74.1932 73.4893 74.8252 73.4893C75.4573 73.4893 75.9466 73.0414 75.9466 72.4714V63.1479V63.1479Z" fill="#FFD520"/>
<path fill-rule="evenodd" clip-rule="evenodd" d="M72.8272 63.1479C72.8272 62.5982 72.3379 62.13 71.7262 62.13C71.1146 62.13 70.6049 62.5779 70.6049 63.1479V72.4714C70.6049 73.0414 71.1146 73.4893 71.7262 73.4893C72.3379 73.4893 72.8272 73.0414 72.8272 72.4714V63.1479V63.1479Z" fill="#FFD520"/>
<path fill-rule="evenodd" clip-rule="evenodd" d="M79.0663 63.1682C79.0663 62.5982 78.5769 62.1504 77.9449 62.1504C77.3129 62.1504 76.8235 62.5982 76.8235 63.1682V72.4715C76.8235 73.0415 77.3333 73.4893 77.9449 73.4893C78.5566 73.4893 79.0663 73.0415 79.0663 72.4715V63.1682Z" fill="#FFD520"/>
<path fill-rule="evenodd" clip-rule="evenodd" d="M135.44 63.1886C135.44 62.6389 134.95 62.1707 134.318 62.1707C133.686 62.1707 133.217 62.6186 133.217 63.1886V72.5121C133.217 73.0618 133.707 73.5096 134.318 73.5096C134.93 73.5096 135.44 73.0618 135.44 72.5121V63.1886Z" fill="#FFD520"/>
<path fill-rule="evenodd" clip-rule="evenodd" d="M132.361 63.1886C132.361 62.6389 131.872 62.1707 131.26 62.1707C130.648 62.1707 130.139 62.6186 130.139 63.1886V72.5121C130.139 73.0618 130.648 73.5096 131.26 73.5096C131.872 73.5096 132.361 73.0618 132.361 72.5121V63.1886Z" fill="#FFD520"/>
<path fill-rule="evenodd" clip-rule="evenodd" d="M138.518 63.2089C138.518 62.6389 138.029 62.191 137.417 62.191C136.806 62.191 136.296 62.6389 136.296 63.2089V72.5325C136.296 73.0821 136.806 73.5503 137.417 73.5503C138.029 73.5503 138.518 73.1025 138.518 72.5325V63.2089V63.2089Z" fill="#FFD520"/>
<path d="M108.588 15.8378H100.698V18.0568H108.588V15.8378Z" fill="#FFD520"/>
<path fill-rule="evenodd" clip-rule="evenodd" d="M72.0524 60.8679C71.2573 60.8679 70.6049 60.2165 70.6049 59.4225C70.6049 58.6286 71.2573 57.9772 72.0524 57.9772H93.868C94.6631 57.9772 95.3155 58.6286 95.3155 59.4225C95.3155 60.2165 94.6631 60.8679 93.868 60.8679H72.0524Z" fill="#FFD520"/>
<path fill-rule="evenodd" clip-rule="evenodd" d="M115.418 57.9772C114.623 57.9772 113.971 58.6082 113.971 59.4225C113.971 60.2368 114.623 60.8679 115.418 60.8679H137.03C137.825 60.8679 138.478 60.2165 138.478 59.4225C138.478 58.6286 137.825 57.9772 137.03 57.9772H115.418V57.9772Z" fill="#FFD520"/>
<path fill-rule="evenodd" clip-rule="evenodd" d="M131.974 39.3503C134.196 38.9228 136.235 39.1671 137.866 39.8592C136.418 37.8846 134.196 36.7039 130.934 36.7853C132.218 35.7675 134.094 34.9939 135.297 34.9939C133.075 34.0575 130.261 34.4035 129.058 35.34C128.956 33.3653 129.058 31.3296 130.159 29.8639C129.364 30.21 127.081 31.8385 126.571 34.7292C124.43 32.5103 122.717 31.7571 120.842 31.92C122.636 33.2839 124.349 35.34 124.858 36.9482C122.024 36.6021 120.067 37.0296 117.763 39.33C120.577 38.821 122.473 38.9025 124.002 39.8389C121.78 40.7753 119.476 42.4039 118.538 44.0121C120.25 43.4217 122.554 42.465 123.839 42.8314C122.819 44.46 122.208 45.7425 122.045 47.4321C123.166 46.1496 123.676 45.4778 125.042 44.7857C124.879 45.5592 124.695 46.0682 124.879 46.5771C125.307 45.9053 125.98 45.4575 126.326 45.4575V70.5171H80.8194V73.4282H129.221V45.9053C129.221 45.9053 130.078 46.6382 130.424 47.4932C130.587 46.4753 130.424 45.7832 130.159 45.2742C131.525 46.0478 132.218 46.9028 132.891 48.0021C132.728 45.4371 132.218 43.6457 131.607 42.8721C133.666 43.2182 134.849 43.5642 135.97 44.236C135.114 42.4446 133.054 39.7982 131.953 39.2892L131.974 39.3503Z" fill="#009D57"/>
<path fill-rule="evenodd" clip-rule="evenodd" d="M100.698 27.2582V48.4093L104.653 46.1497L108.588 48.4093V27.2582H100.698ZM104.653 38.1493C102.859 38.1493 101.412 36.704 101.412 34.9125C101.412 33.1211 102.859 31.6757 104.653 31.6757C106.448 31.6757 107.895 33.1211 107.895 34.9125C107.895 36.704 106.448 38.1493 104.653 38.1493Z" fill="#FFD520"/>
<path d="M71.9708 78.3343H72.9903C73.4592 78.3343 73.9893 78.4768 73.9893 79.0468C73.9893 79.6168 73.5204 79.7797 73.0514 79.7797H71.9708V78.3343ZM70.4825 83.8307H73.2553C74.4582 83.8307 75.8038 83.3625 75.8038 81.9579C75.8038 81.0825 75.2126 80.4311 74.3155 80.309C75.0087 80.0647 75.4776 79.5557 75.4776 78.8025C75.4776 77.3368 74.1932 77.0925 73.0106 77.0925H70.4825V83.8511V83.8307ZM71.9708 81.0418H73.0922C73.5815 81.0418 74.2951 81.1436 74.2951 81.795C74.2951 82.3854 73.765 82.589 73.2961 82.589H71.9504V81.0622L71.9708 81.0418Z" fill="white"/>
<path d="M77.8427 78.3343H78.8213C79.3718 78.3343 79.9834 78.4361 79.9834 79.1079C79.9834 79.8407 79.2698 79.8611 78.7397 79.8611H77.863V78.3343H77.8427ZM76.3543 83.8307H77.8427V81.1232H78.5766L79.9834 83.8307H81.7776L80.065 80.9807C81.0232 80.7975 81.533 80.0646 81.533 79.1282C81.533 77.5607 80.3708 77.0721 78.9844 77.0721H76.3747V83.8307H76.3543Z" fill="white"/>
<path d="M82.2874 77.0721H83.7757V83.8307H82.2874V77.0721Z" fill="white"/>
<path d="M88.1795 78.7211C87.9349 78.4157 87.4659 78.2732 87.0989 78.2732C86.6708 78.2732 86.0999 78.4565 86.0999 78.9654C86.0999 80.2072 89.2193 79.4132 89.2193 81.7747C89.2193 83.2811 88.0164 83.9936 86.6096 83.9936C85.7329 83.9936 84.9785 83.729 84.3465 83.1386L85.4067 81.9782C85.7125 82.3854 86.2018 82.6093 86.7115 82.6093C87.2213 82.6093 87.7514 82.3854 87.7514 81.8968C87.7514 80.655 84.5708 81.3268 84.5708 79.0672C84.5708 77.6218 85.8145 76.8686 87.1601 76.8686C87.9145 76.8686 88.6688 77.0722 89.2397 77.5811L88.2203 78.7007L88.1795 78.7211Z" fill="white"/>
<path d="M91.3398 78.3343H92.3592C92.8281 78.3343 93.3582 78.4768 93.3582 79.0468C93.3582 79.6168 92.8689 79.7797 92.4204 79.7797H91.3398V78.3343ZM89.8514 83.8307H92.6243C93.8272 83.8307 95.1728 83.3625 95.1728 81.9579C95.1728 81.0825 94.5815 80.4311 93.6845 80.309C94.3777 80.0647 94.8466 79.5557 94.8466 78.8025C94.8466 77.3368 93.5621 77.0925 92.3796 77.0925H89.8514V83.8511V83.8307ZM91.3398 81.0418H92.4611C92.9505 81.0418 93.6641 81.1436 93.6641 81.795C93.6641 82.3854 93.134 82.589 92.665 82.589H91.3194V81.0622L91.3398 81.0418Z" fill="white"/>
<path d="M99.597 81.1436H97.9456L98.7611 79.0468L99.597 81.1436V81.1436ZM95.2747 83.8307H96.9058L97.4767 82.4057H100.107L100.698 83.8307H102.39L99.4543 77.0721H98.231L95.3155 83.8307H95.2747Z" fill="white"/>
<path d="M102.9 77.0721H104.918L107.793 81.7746V77.0721H109.282V83.8307H107.324L104.368 79.0264H104.348V83.8307H102.859V77.0721H102.9Z" fill="white"/>
<path d="M110.403 77.0721H114.99V78.4361H111.891V79.6982H114.827V81.0621H111.891V82.4261H115.174V83.79H110.403V77.0314V77.0721Z" fill="white"/>
<path d="M122.248 78.8229C121.942 78.4769 121.514 78.2733 120.964 78.2733C119.842 78.2733 119.007 79.1894 119.007 80.4515C119.007 81.7137 119.842 82.6297 120.923 82.6297C121.514 82.6297 122.004 82.3651 122.309 81.8969L123.553 82.8129C122.982 83.6069 122.024 83.9937 121.107 83.9937C118.986 83.9937 117.457 82.6094 117.457 80.4515C117.457 78.2937 118.986 76.9094 121.107 76.9094C121.861 76.9094 122.819 77.174 123.39 77.9069L122.248 78.8433V78.8229Z" fill="white"/>
<path d="M123.981 77.072H125.47V83.8306H123.981V77.072Z" fill="white"/>
<path d="M128.018 78.3954H126.082V77.0721H131.423V78.3954H129.486V83.8307H127.998V78.3954H128.018Z" fill="white"/>
<path d="M134.38 80.94L131.831 77.0721H133.686L135.114 79.5964L136.643 77.0721H138.416L135.868 80.94V83.8307H134.38V80.94Z" fill="white"/>
<path d="M1.95728 101.725H8.11456C12.7427 101.725 14.2718 103.944 14.2718 106.692C14.2718 109.441 12.4369 113.125 6.70777 113.125H0L0.142718 112.413H0.326214C1.24369 112.413 1.7534 112.026 1.97767 110.866L3.36408 104.026C3.58835 102.967 3.30291 102.438 2.16117 102.438H1.79417L1.93689 101.725H1.95728ZM4.32233 110.682C4.07767 111.822 4.24078 112.331 5.97379 112.331C8.17573 112.331 9.43981 111.436 10.0311 110.845C11.1524 109.726 11.6621 107.832 11.6621 106.55C11.6621 104.311 10.2961 102.499 7.44175 102.499H5.99418L4.32233 110.682Z" fill="#231F20"/>
<path d="M20.7553 111.659C19.7359 112.474 18.2679 113.329 17.0446 113.329C15.8213 113.329 14.9854 112.352 14.9854 110.906C14.9854 108.687 16.9223 105.451 19.6136 105.451C20.5107 105.451 21.1019 105.98 21.1019 106.794C21.1019 108.178 19.5932 109.074 17.1466 109.644C17.065 109.949 17.0446 110.357 17.0446 110.682C17.0446 111.639 17.6155 112.229 18.4922 112.229C19.0223 112.229 19.7155 111.985 20.531 111.354L20.7757 111.68L20.7553 111.659ZM18.8592 106.041C18.1048 106.041 17.6155 107.547 17.2281 109.217C18.6757 108.789 19.4301 107.995 19.4301 106.835C19.4301 106.387 19.2058 106.041 18.8592 106.041Z" fill="#231F20"/>
<path d="M28.7679 111.334C28.0951 112.27 26.9942 113.308 26.2194 113.308C25.6893 113.308 25.3835 112.942 25.3835 112.27C25.3835 112.128 25.4446 111.598 25.6078 110.866H25.5466C24.8738 111.843 23.6505 113.308 22.8961 113.308C22.1417 113.308 21.5709 112.453 21.5709 111.11C21.5709 108.097 24.466 105.451 25.5874 105.451C25.934 105.451 26.2806 105.613 26.5864 105.898L27.2184 102.784C27.2796 102.478 27.2184 102.254 26.9738 102.254C26.8311 102.254 26.5864 102.356 26.4029 102.438L26.199 102.031L28.8087 100.972C28.9514 100.911 29.1757 100.809 29.298 100.809C29.5019 100.809 29.5223 101.053 29.4408 101.379L27.4019 111.558C27.3408 111.822 27.4019 111.924 27.5243 111.924C27.6466 111.924 27.9932 111.639 28.401 111.089L28.7272 111.354L28.7679 111.334ZM26.2194 107.771C25.9951 106.774 25.6689 106.326 25.2 106.326C24.1602 106.326 23.6301 109.4 23.6301 110.601C23.6301 111.354 23.7524 111.619 24.0786 111.619C24.466 111.619 25.2612 110.662 25.832 109.766L26.2398 107.771H26.2194Z" fill="#231F20"/>
<path d="M33.865 111.517C32.8456 112.677 31.8262 113.308 31.0515 113.308C30.4806 113.308 30.0524 112.84 30.0524 112.209C30.0524 111.822 30.1951 111.232 30.501 109.97L31.0718 107.568C31.1534 107.222 31.2146 106.937 30.9699 106.937C30.7456 106.937 30.2971 107.446 29.9709 107.934L29.6243 107.649C30.7864 106.102 31.7039 105.43 32.3971 105.43C32.866 105.43 33.1922 105.858 33.1922 106.468C33.1922 106.713 33.1311 107.181 33.0087 107.69L32.1116 111.436C31.9893 111.965 31.9893 112.168 32.2544 112.168C32.5398 112.168 33.0903 111.741 33.5388 111.212L33.865 111.497V111.517ZM33.1515 101.461C33.7223 101.461 34.1097 101.868 34.1097 102.478C34.1097 103.374 33.4981 104.127 32.7845 104.127C32.234 104.127 31.8262 103.7 31.8262 103.11C31.8262 102.173 32.4175 101.44 33.1515 101.44V101.461Z" fill="#231F20"/>
<path d="M40.0019 111.497C39.3291 112.616 38.0854 113.329 36.9029 113.329C35.5981 113.329 34.8029 112.494 34.8029 111.191C34.8029 109.318 36.4544 105.451 39.3699 105.451C40.0835 105.451 40.5524 105.817 40.5524 106.428C40.5524 107.038 40.1651 107.405 39.5942 107.405C38.7175 107.405 38.6563 106.57 38.0854 106.57C37.066 106.57 36.8214 109.441 36.8214 110.336C36.8214 111.558 37.2495 112.229 38.0243 112.229C38.5544 112.229 39.2068 111.822 39.6553 111.212L39.9816 111.497H40.0019Z" fill="#231F20"/>
<path d="M46.6485 111.334C46.5466 111.741 46.5262 112.026 46.7301 112.026C46.934 112.026 47.6068 111.395 47.9942 110.947V111.558C47.0563 112.555 46.0777 113.308 45.3641 113.308C44.8951 113.308 44.6301 112.901 44.6301 112.209C44.6301 111.883 44.6301 111.721 44.7524 111.049H44.7116C43.5495 112.23 42.5097 113.308 41.9592 113.308C41.5311 113.308 40.6951 112.8 40.6951 111.537C40.6951 110.357 41.1233 108.85 42.6932 107.262C44.2019 105.776 45.4864 105.43 47.8514 105.43L46.6485 111.334ZM45.6495 106.55C44.7116 106.55 44.1 106.815 43.5291 107.385C42.8971 108.016 42.3874 109.318 42.3874 110.357C42.3874 111.11 42.6728 111.619 43.1417 111.619C43.5699 111.619 44.1408 111.049 44.8747 110.275L45.6291 106.53L45.6495 106.55Z" fill="#231F20"/>
<path d="M50.9301 111.639C50.8486 111.965 51.0117 112.23 51.2563 112.23C51.501 112.23 52.133 111.761 52.6631 111.151L52.9893 111.497C52.0311 112.576 50.7874 113.329 49.8903 113.329C49.2175 113.329 48.7282 112.8 48.9321 111.782L50.0126 106.489H49.1156L49.1971 106.082C50.4 105.675 51.4398 104.697 52.5204 103.211H52.9893C52.6427 103.944 52.3981 104.657 52.1534 105.654H53.601L53.4379 106.489H51.9903L50.9301 111.66V111.639Z" fill="#231F20"/>
<path d="M59.6155 111.659C58.5961 112.474 57.1282 113.329 55.9049 113.329C54.6816 113.329 53.8456 112.352 53.8456 110.906C53.8456 108.687 55.7825 105.451 58.4738 105.451C59.3709 105.451 59.9621 105.98 59.9621 106.794C59.9621 108.178 58.4534 109.074 56.0068 109.644C55.9253 109.949 55.9049 110.357 55.9049 110.682C55.9049 111.639 56.4757 112.229 57.3524 112.229C57.8825 112.229 58.5757 111.985 59.3913 111.354L59.6359 111.68L59.6155 111.659ZM57.7194 106.041C56.9651 106.041 56.4757 107.547 56.0884 109.217C57.5359 108.789 58.2903 107.995 58.2903 106.835C58.2903 106.387 58.066 106.041 57.7194 106.041V106.041Z" fill="#231F20"/>
<path d="M67.6486 111.334C66.9757 112.27 65.8748 113.308 65.1 113.308C64.5699 113.308 64.2845 112.942 64.2845 112.27C64.2845 112.128 64.3456 111.598 64.5088 110.866H64.4476C63.7748 111.843 62.5515 113.308 61.7971 113.308C61.0427 113.308 60.4719 112.453 60.4719 111.11C60.4719 108.097 63.367 105.451 64.4884 105.451C64.835 105.451 65.1816 105.613 65.4874 105.898L66.1194 102.784C66.1806 102.478 66.1194 102.254 65.8748 102.254C65.7321 102.254 65.4874 102.356 65.3039 102.438L65.1 102.031L67.7097 100.972C67.8524 100.911 68.0767 100.809 68.1991 100.809C68.4029 100.809 68.4233 101.053 68.3418 101.379L66.3029 111.558C66.2418 111.822 66.3029 111.924 66.4253 111.924C66.5476 111.924 66.8942 111.639 67.302 111.089L67.6282 111.354L67.6486 111.334ZM65.1 107.771C64.8757 106.774 64.5495 106.326 64.0806 106.326C63.0408 106.326 62.5107 109.4 62.5107 110.601C62.5107 111.354 62.633 111.619 62.9592 111.619C63.3466 111.619 64.1418 110.662 64.7126 109.766L65.1204 107.771H65.1Z" fill="#231F20"/>
<path d="M75.9262 111.639C75.8447 111.965 76.0282 112.23 76.2524 112.23C76.4767 112.23 77.1291 111.761 77.6592 111.151L77.9854 111.497C77.0272 112.576 75.7835 113.329 74.8864 113.329C74.2136 113.329 73.7243 112.8 73.9282 111.782L75.0087 106.489H74.1116L74.1932 106.082C75.3961 105.675 76.4359 104.697 77.5165 103.211H77.9854C77.6388 103.944 77.3942 104.657 77.1495 105.654H78.5971L78.434 106.489H76.9864L75.9262 111.66V111.639Z" fill="#231F20"/>
<path d="M83.8573 105.43C85.0398 105.43 85.8146 106.489 85.8146 108.117C85.8146 111.293 82.8175 113.308 80.8806 113.308C79.698 113.308 78.8825 112.23 78.8825 110.682C78.8825 108.016 81.3495 105.43 83.8573 105.43ZM82.0223 112.535C82.7155 112.535 83.7349 110.723 83.7349 108.443C83.7349 107.242 83.266 106.163 82.7155 106.163C81.9612 106.163 81.0029 108.016 81.0029 110.235C81.0029 111.558 81.4311 112.515 82.0223 112.515V112.535Z" fill="#231F20"/>
<path d="M97.6398 111.334C97.5582 111.741 97.5175 112.026 97.7214 112.026C97.9252 112.026 98.598 111.395 98.9854 110.947V111.558C98.0476 112.555 97.0689 113.308 96.3553 113.308C95.8864 113.308 95.6214 112.901 95.6214 112.209C95.6214 111.883 95.6213 111.721 95.7437 111.049H95.7029C94.5408 112.23 93.501 113.308 92.9505 113.308C92.5223 113.308 91.6864 112.8 91.6864 111.537C91.6864 110.357 92.1146 108.85 93.6845 107.262C95.1932 105.776 96.4777 105.43 98.8427 105.43L97.6398 111.334V111.334ZM96.6408 106.55C95.7029 106.55 95.0913 106.815 94.5204 107.385C93.8883 108.016 93.3786 109.318 93.3786 110.357C93.3786 111.11 93.6641 111.619 94.133 111.619C94.5612 111.619 95.132 111.049 95.8864 110.275L96.6408 106.53V106.55Z" fill="#231F20"/>
<path d="M108.527 100.992C109.037 100.789 108.935 100.809 109.078 100.809C109.261 100.809 109.282 101.053 109.18 101.522L107.936 107.731L107.977 107.771C108.996 106.591 110.117 105.451 110.729 105.451C111.524 105.451 111.891 107.262 111.891 108.056C111.891 110.825 109.71 113.329 107.263 113.329C106.223 113.329 104.98 112.576 105.326 110.967L106.998 102.763C107.08 102.438 107.039 102.193 106.774 102.193C106.651 102.193 106.57 102.193 106.305 102.356L106.101 101.949L108.548 100.992H108.527ZM107.161 111.66C107.059 112.23 107.222 112.861 107.752 112.861C108.853 112.861 109.832 110.275 109.832 108.219C109.832 107.608 109.75 107.242 109.506 107.242C109.2 107.242 108.384 107.955 107.773 108.708L107.182 111.66H107.161Z" fill="#231F20"/>
<path d="M118.762 111.659C117.743 112.474 116.275 113.329 115.051 113.329C113.828 113.329 112.992 112.352 112.992 110.906C112.992 108.687 114.929 105.451 117.62 105.451C118.517 105.451 119.109 105.98 119.109 106.794C119.109 108.178 117.6 109.074 115.153 109.644C115.072 109.949 115.051 110.357 115.051 110.682C115.051 111.639 115.622 112.229 116.499 112.229C117.029 112.229 117.722 111.985 118.538 111.354L118.783 111.68L118.762 111.659ZM116.866 106.041C116.112 106.041 115.622 107.547 115.235 109.217C116.683 108.789 117.437 107.995 117.437 106.835C117.437 106.387 117.213 106.041 116.866 106.041Z" fill="#231F20"/>
<path d="M122.126 111.639C122.045 111.965 122.208 112.23 122.452 112.23C122.697 112.23 123.329 111.761 123.859 111.151L124.185 111.497C123.227 112.576 121.984 113.329 121.086 113.329C120.414 113.329 119.924 112.8 120.128 111.782L121.209 106.489H120.312L120.393 106.082C121.596 105.675 122.636 104.697 123.717 103.211H124.185C123.839 103.944 123.594 104.657 123.35 105.654H124.797L124.634 106.489H123.186L122.126 111.66V111.639Z" fill="#231F20"/>
<path d="M127.468 111.639C127.386 111.965 127.57 112.23 127.794 112.23C128.018 112.23 128.671 111.761 129.201 111.151L129.527 111.497C128.569 112.576 127.325 113.329 126.428 113.329C125.755 113.329 125.266 112.8 125.47 111.782L126.55 106.489H125.653L125.735 106.082C126.938 105.675 127.978 104.697 129.058 103.211H129.527C129.181 103.944 128.936 104.657 128.691 105.654H130.139L129.976 106.489H128.528L127.468 111.66V111.639Z" fill="#231F20"/>
<path d="M136.174 111.659C135.154 112.474 133.686 113.329 132.463 113.329C131.24 113.329 130.404 112.352 130.404 110.906C130.404 108.687 132.341 105.451 135.032 105.451C135.929 105.451 136.52 105.98 136.52 106.794C136.52 108.178 135.012 109.074 132.565 109.644C132.483 109.949 132.463 110.357 132.463 110.682C132.463 111.639 133.034 112.229 133.911 112.229C134.441 112.229 135.134 111.985 135.949 111.354L136.194 111.68L136.174 111.659ZM134.278 106.041C133.523 106.041 133.034 107.547 132.647 109.217C134.094 108.789 134.849 107.995 134.849 106.835C134.849 106.387 134.624 106.041 134.278 106.041Z" fill="#231F20"/>
<path d="M136.989 107.853C138.09 106.407 139.049 105.43 139.66 105.43C139.946 105.43 140.068 105.654 140.068 106.143C140.068 106.753 139.946 107.446 139.803 108.239L139.416 110.234C139.416 110.479 139.416 110.601 139.477 110.601C139.538 110.601 139.599 110.438 139.742 109.868L140.088 108.769C140.741 106.672 141.291 105.41 142.372 105.41C142.8 105.41 143.024 105.695 143.024 106.224C143.024 107.079 142.576 107.792 142.046 107.792C141.781 107.792 141.495 107.69 141.087 108.077C140.435 108.728 139.905 110.703 139.579 112.209L139.456 112.799C139.375 113.207 139.171 113.268 138.885 113.268H138.05C137.581 113.268 137.438 113.125 137.54 112.616L138.396 107.69C138.457 107.405 138.559 106.977 138.315 106.977C138.192 106.977 137.519 107.771 137.316 108.097L136.969 107.832L136.989 107.853Z" fill="#231F20"/>
<path d="M155.706 101.725C157.296 101.725 159.111 102.519 159.111 104.168C159.111 105.288 158.234 106.448 156.216 106.815V106.855C157.806 107.303 158.723 108.301 158.723 109.624C158.723 111.069 157.337 113.146 154.381 113.146H147.652L147.795 112.433C148.978 112.433 149.283 111.985 149.569 110.54L150.894 104.046C151.098 103.028 150.894 102.458 149.691 102.458H149.345L149.487 101.746H155.706V101.725ZM151.771 110.947C151.567 111.924 151.995 112.331 153.096 112.331C154.197 112.331 154.89 112.067 155.38 111.558C155.971 110.967 156.277 110.011 156.277 109.257C156.277 107.954 155.237 107.12 153.667 107.12H152.546L151.75 110.947H151.771ZM154.217 106.346C156.399 106.346 156.807 104.799 156.807 104.087C156.807 103.374 156.297 102.499 154.788 102.499H153.504L152.709 106.346H154.217Z" fill="#231F20"/>
<path d="M159.682 107.853C160.782 106.407 161.741 105.43 162.352 105.43C162.617 105.43 162.76 105.654 162.76 106.143C162.76 106.753 162.638 107.446 162.495 108.239L162.108 110.234C162.108 110.479 162.108 110.601 162.169 110.601C162.25 110.601 162.291 110.438 162.434 109.868L162.781 108.769C163.433 106.672 163.983 105.41 165.064 105.41C165.492 105.41 165.716 105.695 165.716 106.224C165.716 107.079 165.268 107.792 164.738 107.792C164.473 107.792 164.187 107.69 163.78 108.077C163.127 108.728 162.597 110.703 162.271 112.209L162.149 112.799C162.067 113.207 161.883 113.268 161.578 113.268H160.762C160.293 113.268 160.15 113.125 160.252 112.616L161.109 107.69C161.17 107.405 161.272 106.977 161.027 106.977C160.905 106.977 160.232 107.771 160.028 108.097L159.682 107.832V107.853Z" fill="#231F20"/>
<path d="M170.324 111.517C169.305 112.677 168.285 113.308 167.511 113.308C166.94 113.308 166.512 112.84 166.512 112.209C166.512 111.822 166.654 111.232 166.96 109.97L167.531 107.568C167.613 107.222 167.674 106.937 167.45 106.937C167.225 106.937 166.777 107.446 166.43 107.934L166.083 107.649C167.246 106.102 168.163 105.43 168.856 105.43C169.325 105.43 169.651 105.858 169.651 106.468C169.651 106.713 169.59 107.181 169.468 107.69L168.571 111.436C168.449 111.965 168.449 112.168 168.714 112.168C168.979 112.168 169.529 111.741 169.998 111.212L170.324 111.497V111.517ZM169.611 101.461C170.182 101.461 170.569 101.868 170.569 102.478C170.569 103.374 169.957 104.127 169.244 104.127C168.693 104.127 168.285 103.7 168.285 103.11C168.285 102.173 168.877 101.44 169.611 101.44V101.461Z" fill="#231F20"/>
<path d="M174.096 106.265C173.831 106.265 173.627 106.509 173.627 106.794C173.627 108.097 175.972 109.033 175.972 110.682C175.972 112.331 174.626 113.329 172.669 113.329C171.527 113.329 170.854 112.861 170.854 112.107C170.854 111.578 171.303 111.11 171.853 111.11C172.852 111.11 173.199 112.453 174.3 112.453C174.585 112.453 174.85 112.209 174.85 111.924C174.85 110.825 172.241 109.705 172.241 107.893C172.241 106.591 173.627 105.451 175.197 105.451C176.053 105.451 176.645 105.939 176.645 106.652C176.645 107.242 176.237 107.669 175.707 107.669C174.585 107.669 174.891 106.285 174.117 106.285L174.096 106.265Z" fill="#231F20"/>
<path d="M181.049 100.992C181.558 100.789 181.456 100.809 181.599 100.809C181.783 100.809 181.803 101.053 181.701 101.522L180.457 107.731L180.498 107.771C181.517 106.591 182.639 105.451 183.25 105.451C184.046 105.451 184.413 107.262 184.413 108.056C184.413 110.825 182.231 113.329 179.784 113.329C178.745 113.329 177.501 112.576 177.827 110.967L179.499 102.763C179.581 102.438 179.54 102.193 179.275 102.193C179.152 102.193 179.071 102.193 178.806 102.356L178.602 101.949L181.049 100.992V100.992ZM179.662 111.66C179.56 112.23 179.723 112.861 180.253 112.861C181.354 112.861 182.333 110.275 182.333 108.219C182.333 107.608 182.251 107.242 182.007 107.242C181.701 107.242 180.885 107.955 180.274 108.708L179.683 111.66H179.662Z" fill="#231F20"/>
<path d="M191.345 111.334C191.263 111.741 191.222 112.026 191.426 112.026C191.63 112.026 192.303 111.395 192.69 110.947V111.558C191.752 112.555 190.753 113.308 190.06 113.308C189.591 113.308 189.326 112.901 189.326 112.209C189.326 111.883 189.326 111.721 189.449 111.049H189.408C188.246 112.23 187.206 113.308 186.655 113.308C186.227 113.308 185.391 112.8 185.391 111.537C185.391 110.357 185.819 108.85 187.389 107.262C188.898 105.776 190.182 105.43 192.548 105.43L191.324 111.334H191.345ZM190.366 106.55C189.428 106.55 188.816 106.815 188.246 107.385C187.614 108.016 187.104 109.318 187.104 110.357C187.104 111.11 187.389 111.619 187.858 111.619C188.286 111.619 188.857 111.049 189.612 110.275L190.366 106.53V106.55Z" fill="#231F20"/>
<path d="M196.054 112.514C195.952 113.125 195.871 113.207 195.422 113.207H194.444C194.016 113.207 193.954 113.084 194.056 112.576L195.096 107.527C195.178 107.181 195.218 106.998 195.035 106.998C194.831 106.998 194.505 107.364 193.934 108.178L193.567 107.914C194.403 106.57 195.749 105.451 196.483 105.451C196.931 105.451 197.176 105.817 197.176 106.448C197.176 107.099 196.972 107.873 196.809 108.626L196.85 108.667C198.399 106.448 199.561 105.451 200.581 105.451C201.151 105.451 201.498 105.858 201.498 106.509C201.498 106.713 201.457 106.977 201.355 107.364L200.417 111.293C200.316 111.761 200.275 112.067 200.417 112.067C200.581 112.067 201.192 111.497 201.661 110.866L202.008 111.13C201.029 112.474 199.949 113.308 199.113 113.308C198.664 113.308 198.297 112.84 198.297 112.291C198.297 112.067 198.338 111.822 198.44 111.354L199.317 107.568C199.398 107.161 199.317 106.977 199.072 106.977C198.623 106.977 197.747 108.138 196.625 109.583L196.014 112.514H196.054Z" fill="#231F20"/>
<path d="M208.695 111.659C207.696 112.474 206.208 113.329 204.984 113.329C203.761 113.329 202.925 112.352 202.925 110.906C202.925 108.687 204.883 105.451 207.553 105.451C208.45 105.451 209.042 105.98 209.042 106.794C209.042 108.178 207.533 109.074 205.066 109.644C204.984 109.949 204.964 110.357 204.964 110.682C204.964 111.639 205.535 112.229 206.412 112.229C206.942 112.229 207.635 111.985 208.45 111.354L208.695 111.68V111.659ZM206.799 106.041C206.045 106.041 205.555 107.547 205.168 109.217C206.616 108.789 207.37 107.995 207.37 106.835C207.37 106.387 207.146 106.041 206.799 106.041Z" fill="#231F20"/>
</g>
<defs>
<clipPath id="clip0_36370_18679">
<rect width="209.042" height="113.349" fill="white"/>
</clipPath>
</defs>
</svg>
